<?xml version="1.0" encoding="utf-8"?>
<!-- Generator: Adobe Illustrator 19.2.0, SVG Export Plug-In . SVG Version: 6.00 Build 0)  -->
<svg version="1.1" id="Layer_1" xmlns="http://www.w3.org/2000/svg" xmlns:xlink="http://www.w3.org/1999/xlink" x="0px" y="0px"
	 viewBox="0 0 16 20" enable-background="new 0 0 16 20" xml:space="preserve">
<g>
	<g>
		<g>
			<defs>
				<rect id="SVGID_1_" x="-380" y="-58.2" width="320" height="420"/>
			</defs>
			<clipPath id="SVGID_2_">
				<use xlink:href="#SVGID_1_"  overflow="visible"/>
			</clipPath>
			<g opacity="0.8" clip-path="url(#SVGID_2_)">
				
					<image overflow="visible" width="3008" height="1960" xlink:href="6AF91DF6B914DF8C.jpg"  transform="matrix(0.275 0 0 0.275 -633.5385 -176.9934)">
				</image>
			</g>
		</g>
	</g>
</g>
<g>
	<path fill="#353535" d="M8,1C4,1,0.7,4.3,0.7,8.3C0.7,12.1,8,19,8,19s7.3-6.9,7.3-10.7C15.3,4.3,12,1,8,1z M8,11.4
		c-1.8,0-3.3-1.5-3.3-3.3S6.2,4.8,8,4.8s3.3,1.5,3.3,3.3S9.8,11.4,8,11.4z"/>
	<path fill="#D8D8D8" d="M8,19.5c-0.1,0-0.2,0-0.3-0.1c-0.3-0.3-7.4-7.1-7.4-11.1C0.2,4,3.7,0.5,8,0.5s7.8,3.5,7.8,7.8
		c0,4-7.1,10.8-7.4,11.1C8.2,19.5,8.1,19.5,8,19.5z M8,1.5c-3.7,0-6.8,3-6.8,6.8c0,2.8,4.6,7.9,6.8,10c1.4-1.4,6.8-6.9,6.8-10
		C14.8,4.5,11.7,1.5,8,1.5z M8,11.9c-2.1,0-3.8-1.7-3.8-3.8S5.9,4.3,8,4.3s3.8,1.7,3.8,3.8S10.1,11.9,8,11.9z M8,5.3
		c-1.5,0-2.8,1.3-2.8,2.8c0,1.5,1.3,2.8,2.8,2.8s2.8-1.3,2.8-2.8C10.8,6.6,9.5,5.3,8,5.3z"/>
</g>
<g id="Our_People">
</g>
<g id="Our_Service">
</g>
<g id="Our_Products">
</g>
</svg>
