<?xml version="1.0" encoding="utf-8"?>
<!-- Generator: Adobe Illustrator 19.2.0, SVG Export Plug-In . SVG Version: 6.00 Build 0)  -->
<svg version="1.1" id="Layer_1" xmlns="http://www.w3.org/2000/svg" xmlns:xlink="http://www.w3.org/1999/xlink" x="0px" y="0px"
	 viewBox="0 0 168 52" enable-background="new 0 0 168 52" xml:space="preserve">
<g>
	<g>
		<g>
			<defs>
				<rect id="SVGID_1_" x="-380" y="20.5" width="320" height="420"/>
			</defs>
			<clipPath id="SVGID_2_">
				<use xlink:href="#SVGID_1_"  overflow="visible"/>
			</clipPath>
			<g opacity="0.8" clip-path="url(#SVGID_2_)">
				
					<image overflow="visible" width="3008" height="1960" xlink:href="41A0D0CC7BD914EC.jpg"  transform="matrix(0.275 0 0 0.275 -633.5385 -98.2775)">
				</image>
			</g>
		</g>
	</g>
</g>
<g>
	<g>
		<path fill="#FFD731" d="M35,23.9L13.7,43.8l-0.1-1.5l0.1-1.7l0.5-1.7c3.2-6.1,15.6-4.7,19.6-23.8C34.4,12.6,35,17.6,35,23.9z"/>
		<path fill="#FFD731" d="M21.2,31.5c-10.3,5-10.2,10.3-9.4,14l-4.3,4.1C1.1,48-2.1,41.4,4.2,33.3C15.3,18.8,23.4,28.6,32.7,1
			C34.9-5.8,35.4,24.7,21.2,31.5z"/>
		<path fill="#FFD731" d="M27.1,7.6c-1,6-5.2,11-10.3,13.6l-7.2,3.9c-1.4,1.1-2.8,2-3.7,3.7l-0.3,0C6.3,21.7,12.2,17,17.9,14
			C21.3,12.4,24.8,10.2,27.1,7.6z"/>
	</g>
	<g>
		<path fill="#231F20" d="M133.4,35.1c1.2-3.3,1.2-5.7,0.1-7.3c-1.7-2.4-5.5-2.7-9.1-2.7c-7.4,0-12.9,1.6-15.8,9.7l-2.6,7.2
			c-0.4,1.2-0.7,2.2-0.8,3.2h-9.2l7.5-19.6h-9.1L84.8,52h17.9l2.3-6.3c-0.1,1.5,0.1,2.6,0.8,3.6c1.7,2.4,5.5,2.7,9.1,2.7
			c7.4,0,12.9-1.6,15.8-9.7L133.4,35.1z M125.2,35.5l-2.1,5.8c-1.3,3.6-2.5,3.9-6,3.9c-1.8,0-2.9-0.1-3.3-0.6
			c-0.3-0.4-0.2-1.4,0.3-3l2.1-5.8c1.4-3.5,2.4-3.9,6-3.9c1.8,0,2.9,0.1,3.3,0.6C125.9,33,125.8,33.9,125.2,35.5z"/>
		<path fill="#231F20" d="M35.5,25.5L8.2,52h9l4.5-4.4h9.2L29.3,52h8.6l9.8-26.5H35.5z M36.8,32.7l-3.5,9h-5.6L36.8,32.7z"/>
		<polygon fill="#231F20" points="69.7,25.5 50.6,44.3 58.1,25.5 49.5,25.5 39.1,52 51.6,52 78.6,25.5 		"/>
		<path fill="#231F20" d="M80.6,25.5L53.3,52h9l4.5-4.4H76L74.4,52H83l9.8-26.5H80.6z M81.9,32.7l-3.5,9h-5.6L81.9,32.7z"/>
		<polygon fill="#231F20" points="158.8,25.5 152.4,44 151.6,25.5 138.3,25.5 128.6,52 137,52 143.4,33.5 144.1,52 157.5,52 
			167.2,25.5 		"/>
	</g>
</g>
<g id="Our_People">
</g>
<g id="Our_Service">
</g>
<g id="Our_Products">
</g>
</svg>
