<?xml version="1.0" encoding="utf-8"?>
<!-- Generator: Adobe Illustrator 19.2.0, SVG Export Plug-In . SVG Version: 6.00 Build 0)  -->
<svg version="1.1" id="Layer_1" xmlns="http://www.w3.org/2000/svg" xmlns:xlink="http://www.w3.org/1999/xlink" x="0px" y="0px"
	 viewBox="0 0 104 32" enable-background="new 0 0 104 32" xml:space="preserve">
<g>
	<g>
		<g>
			<defs>
				<rect id="SVGID_1_" x="-380" y="80" width="320" height="420"/>
			</defs>
			<clipPath id="SVGID_2_">
				<use xlink:href="#SVGID_1_"  overflow="visible"/>
			</clipPath>
			<g opacity="0.8" clip-path="url(#SVGID_2_)">
				
					<image overflow="visible" width="3008" height="1960" xlink:href="2CB708F329CA04E6.jpg"  transform="matrix(0.275 0 0 0.275 -633.5385 -38.7986)">
				</image>
			</g>
		</g>
	</g>
</g>
<g>
	<path fill="#FFD731" d="M9.1,24l-0.3,1l-0.1,1l0,0.9l13.1-12.3c0-3.9-0.4-6.9-0.7-5.3C18.6,21.1,11,20.2,9.1,24z"/>
	<path fill="#FFD731" d="M13.4,19.4c8.7-4.2,8.4-23,7-18.8c-5.7,17-10.7,11-17.5,19.9c-3.8,5-1.9,9.1,2.1,10L7.6,28
		C7.1,25.7,7.1,22.4,13.4,19.4z"/>
	<path fill="#FFD731" d="M6.2,15.5l4.5-2.4c3.1-1.6,5.7-4.7,6.3-8.4c-1.4,1.6-3.5,3-5.6,3.9c-3.5,1.8-7.2,4.7-7.6,9.1l0.2,0
		C4.5,16.7,5.3,16.1,6.2,15.5z"/>
	<path fill="#FFFFFF" d="M82.4,21.6c0.7-2,0.8-3.5,0.1-4.5c-1-1.5-3.4-1.7-5.6-1.7c-4.5,0-7.9,1-9.7,6l-1.6,4.5
		c-0.3,0.7-0.4,1.4-0.5,1.9h-5.7L64,15.7h-5.6L52.5,32h11l1.4-3.8c-0.1,0.9,0.1,1.6,0.5,2.2c1,1.5,3.4,1.7,5.6,1.7
		c4.5,0,7.9-1,9.7-6L82.4,21.6z M77.3,21.8L76,25.4c-0.8,2.2-1.6,2.4-3.7,2.4c-1.1,0-1.8-0.1-2-0.4c-0.2-0.3-0.1-0.9,0.2-1.8
		l1.3-3.5c0.8-2.2,1.5-2.4,3.7-2.4c1.1,0,1.8,0.1,2,0.4C77.8,20.3,77.7,20.9,77.3,21.8z"/>
	<path fill="#FFFFFF" d="M22.1,15.7L5.3,32h5.6l2.8-2.7h5.7l-1,2.7h5.3l6-16.3H22.1z M20.8,25.7h-3.4l5.6-5.5L20.8,25.7z"/>
	<polygon fill="#FFFFFF" points="43.2,15.7 31.5,27.2 36,15.7 30.8,15.7 24.4,32 32,32 48.7,15.7 	"/>
	<path fill="#FFFFFF" d="M49.9,15.7L33.1,32h5.6l2.8-2.7h5.7l-1,2.7h5.3l6-16.3H49.9z M48.5,25.7h-3.4l5.6-5.5L48.5,25.7z"/>
	<polygon fill="#FFFFFF" points="98,15.7 94.1,27.1 93.6,15.7 85.4,15.7 79.5,32 84.6,32 88.5,20.6 89,32 97.3,32 103.2,15.7 	"/>
</g>
<g id="Our_People">
</g>
<g id="Our_Service">
</g>
<g id="Our_Products">
</g>
</svg>
