<?xml version="1.0" encoding="utf-8"?>
<!-- Generator: Adobe Illustrator 19.2.0, SVG Export Plug-In . SVG Version: 6.00 Build 0)  -->
<svg version="1.1" id="Layer_1" xmlns="http://www.w3.org/2000/svg" xmlns:xlink="http://www.w3.org/1999/xlink" x="0px" y="0px"
	 viewBox="0 0 102 60" enable-background="new 0 0 102 60" xml:space="preserve">
<g>
	<g>
		<g>
			<defs>
				<rect id="SVGID_1_" x="-516.5" y="-58.2" width="320" height="420"/>
			</defs>
			<clipPath id="SVGID_2_">
				<use xlink:href="#SVGID_1_"  overflow="visible"/>
			</clipPath>
			<g opacity="0.8" clip-path="url(#SVGID_2_)">
				
					<image overflow="visible" width="3008" height="1960" xlink:href="3B1BBEE4BACBF001.jpg"  transform="matrix(0.275 0 0 0.275 -770.0156 -176.9934)">
				</image>
			</g>
		</g>
	</g>
</g>
<g id="Our_People">
</g>
<g id="Our_Service">
</g>
<g id="Our_Products">
</g>
<g>
	<g>
		<path fill="#353535" d="M100,46.9c-0.7,0-1.2-0.6-1.2-1.2V34.8L85.9,17.9h-14v27.8c0,0.7-0.6,1.2-1.2,1.2h-16
			c-0.7,0-1.2-0.6-1.2-1.2s0.6-1.2,1.2-1.2h14.7V16.7c0-0.7,0.6-1.2,1.2-1.2h15.9c0.4,0,0.8,0.2,1,0.5L101,33.6
			c0.2,0.2,0.3,0.5,0.3,0.8v11.3C101.3,46.4,100.7,46.9,100,46.9z"/>
	</g>
	<g>
		<g>
			<circle fill="#D8D8D8" cx="22.6" cy="50.3" r="6.7"/>
			<path fill="#353535" d="M22.6,58.3c-4.4,0-7.9-3.5-7.9-7.9s3.5-7.9,7.9-7.9s7.9,3.5,7.9,7.9S27,58.3,22.6,58.3z M22.6,44.9
				c-3,0-5.4,2.4-5.4,5.4s2.4,5.4,5.4,5.4s5.4-2.4,5.4-5.4S25.6,44.9,22.6,44.9z"/>
		</g>
		<g>
			<circle fill="#D8D8D8" cx="42.3" cy="50.3" r="6.7"/>
			<path fill="#353535" d="M42.3,58.3c-4.4,0-7.9-3.5-7.9-7.9s3.5-7.9,7.9-7.9c4.4,0,7.9,3.5,7.9,7.9S46.6,58.3,42.3,58.3z
				 M42.3,44.9c-3,0-5.4,2.4-5.4,5.4s2.4,5.4,5.4,5.4s5.4-2.4,5.4-5.4S45.2,44.9,42.3,44.9z"/>
		</g>
		<g>
			<circle fill="#D8D8D8" cx="84.7" cy="50.3" r="6.7"/>
			<path fill="#353535" d="M84.7,58.3c-4.4,0-7.9-3.5-7.9-7.9s3.5-7.9,7.9-7.9c4.4,0,7.9,3.5,7.9,7.9S89,58.3,84.7,58.3z M84.7,44.9
				c-3,0-5.4,2.4-5.4,5.4s2.4,5.4,5.4,5.4s5.4-2.4,5.4-5.4S87.6,44.9,84.7,44.9z"/>
		</g>
	</g>
	<g>
		<path fill="#FFD731" d="M57.8,7.2H44.4v-2c0-1.2-1-2.1-2.1-2.1h-4.2c-1.2,0-2.1,1-2.1,2.1v2h-8.5v-2c0-1.2-1-2.1-2.1-2.1h-4.2
			C19.9,3,19,4,19,5.1v2H7.7c-3,0-5.5,6.7-5.5,14.9s2.5,14.9,5.5,14.9h50.1c3,0,5.5-6.7,5.5-14.9S60.8,7.2,57.8,7.2z"/>
		<path fill="#353535" d="M57.8,38.1H7.7C3.3,38.1,1,30,1,22S3.3,5.9,7.7,5.9h10V5.1c0-1.9,1.5-3.4,3.4-3.4h4.2
			c1.9,0,3.4,1.5,3.4,3.4v0.8h6V5.1c0-1.9,1.5-3.4,3.4-3.4h4.2c1.9,0,3.4,1.5,3.4,3.4v0.8h12.1c4.4,0,6.7,8.1,6.7,16.1
			S62.2,38.1,57.8,38.1z M7.7,8.4C6,8.4,3.5,13.7,3.5,22c0,8.3,2.5,13.6,4.2,13.6h50.1c1.7,0,4.2-5.3,4.2-13.6
			c0-8.3-2.5-13.6-4.2-13.6H44.4c-0.7,0-1.2-0.6-1.2-1.2v-2c0-0.5-0.4-0.9-0.9-0.9h-4.2c-0.5,0-0.9,0.4-0.9,0.9v2
			c0,0.7-0.6,1.2-1.2,1.2h-8.5c-0.7,0-1.2-0.6-1.2-1.2v-2c0-0.5-0.4-0.9-0.9-0.9h-4.2c-0.5,0-0.9,0.4-0.9,0.9v2
			c0,0.7-0.6,1.2-1.2,1.2H7.7z"/>
	</g>
	<g>
		<path fill="#353535" d="M9.9,46.9H5.7c-0.7,0-1.2-0.6-1.2-1.2s0.6-1.2,1.2-1.2h4.2c0.7,0,1.2,0.6,1.2,1.2S10.6,46.9,9.9,46.9z"/>
	</g>
</g>
</svg>
