<?xml version="1.0" encoding="utf-8"?>
<!-- Generator: Adobe Illustrator 19.2.0, SVG Export Plug-In . SVG Version: 6.00 Build 0)  -->
<svg version="1.1" id="Layer_1" xmlns="http://www.w3.org/2000/svg" xmlns:xlink="http://www.w3.org/1999/xlink" x="0px" y="0px"
	 viewBox="0 0 60 60" enable-background="new 0 0 60 60" xml:space="preserve">
<g id="Our_People">
</g>
<g id="Our_Service">
</g>
<g id="Our_Products">
</g>
<g>
	<g>
		<path fill="#FFFFFF" d="M43.5,29.2c0-8.2-5.9-14.9-13.2-14.9c-7.3,0-13.2,6.7-13.2,14.9c0,5.5,1.8,10.5,5.7,13l-1.2,12.4h17.5
			l-1.4-11.9C41.6,40.1,43.5,34.6,43.5,29.2z"/>
		<path fill="#353535" d="M39.2,55.9H21.7c-0.4,0-0.7-0.1-0.9-0.4c-0.2-0.3-0.4-0.6-0.3-1l1.1-11.6c-3.6-2.7-5.7-7.7-5.7-13.6
			c0-8.9,6.5-16.1,14.4-16.1c8,0,14.4,7.2,14.4,16.1c0,5.9-2.1,11.2-5.6,14l1.3,11.2c0,0.4-0.1,0.7-0.3,1
			C39.9,55.7,39.5,55.9,39.2,55.9z M23.1,53.4h14.7l-1.2-10.5c-0.1-0.5,0.2-0.9,0.5-1.2c3.2-2.2,5.1-7,5.1-12.4
			c0-7.5-5.3-13.6-11.9-13.6s-11.9,6.1-11.9,13.6c0,5.5,1.9,9.8,5.2,12c0.4,0.3,0.6,0.7,0.6,1.2L23.1,53.4z"/>
	</g>
	<g>
		<path fill="#D8D8D8" d="M56.4,57.5c0,0-3.4-9.5-9.7-9.8c-6.3-0.3-7.7,0-7.7,0s-3.4,3.7-8.6,3.7s-8.6-3.7-8.6-3.7s-1.4-0.3-7.7,0
			c-6.3,0.3-9.7,9.8-9.7,9.8H56.4z"/>
		<path fill="#353535" d="M4.2,58.8c-0.1,0-0.3,0-0.4-0.1c-0.6-0.2-1-1-0.7-1.6c0.2-0.4,3.8-10.3,10.9-10.6c6.3-0.3,7.9,0,8,0
			c0.3,0.1,0.5,0.2,0.7,0.4c0,0,3.1,3.3,7.7,3.3c4.6,0,7.6-3.3,7.7-3.3c0.2-0.2,0.4-0.3,0.7-0.4c0.2,0,1.8-0.3,8,0
			c7.1,0.3,10.7,10.2,10.9,10.6c0.2,0.6-0.1,1.4-0.7,1.6c-0.6,0.2-1.4-0.1-1.6-0.7c0-0.1-3.2-8.7-8.6-8.9c-4.4-0.2-6.4-0.1-7.1-0.1
			c-1.1,1-4.4,3.8-9.2,3.8c-4.7,0-8.1-2.8-9.2-3.8c-0.7-0.1-2.6-0.1-7.1,0.1c-4.5,0.2-7.7,6.5-8.6,8.9C5.2,58.4,4.8,58.8,4.2,58.8z"
			/>
	</g>
	<g>
		<ellipse fill="#FFFFFF" cx="30.3" cy="29.2" rx="13.7" ry="15.5"/>
		<path fill="#353535" d="M30.3,46c-8.2,0-15-7.5-15-16.8s6.7-16.8,15-16.8c8.2,0,15,7.5,15,16.8S38.6,46,30.3,46z M30.3,15
			c-6.9,0-12.5,6.4-12.5,14.2s5.6,14.2,12.5,14.2s12.5-6.4,12.5-14.2S37.2,15,30.3,15z"/>
	</g>
	<g>
		<path fill="#FFD731" d="M12.8,26.5h34.9c0,0-1.6-19.9-17.5-19.9S12.8,26.5,12.8,26.5z"/>
		<path fill="#353535" d="M47.8,27.8H12.8c-0.3,0-0.7-0.1-0.9-0.4c-0.2-0.3-0.4-0.6-0.3-0.9c0-0.2,1.9-21,18.7-21
			c16.9,0,18.7,20.8,18.7,21c0,0.3-0.1,0.7-0.3,0.9C48.4,27.7,48.1,27.8,47.8,27.8z M14.3,25.3h32.1c-0.3-1.8-1-5-2.5-8.2
			c-2.9-6.1-7.5-9.2-13.5-9.2c-6,0-10.6,3.1-13.5,9.2C15.2,20.3,14.5,23.5,14.3,25.3z"/>
	</g>
	<g>
		
			<rect x="26.3" y="3.6" transform="matrix(5.876970e-11 1 -1 5.876970e-11 52.8441 -7.7623)" fill="#FFD731" width="8" height="37.8"/>
		<path fill="#353535" d="M49.2,27.8H11.4c-0.7,0-1.2-0.6-1.2-1.2v-8c0-0.7,0.6-1.2,1.2-1.2h37.8c0.7,0,1.2,0.6,1.2,1.2v8
			C50.4,27.2,49.9,27.8,49.2,27.8z M12.7,25.3h35.3v-5.5H12.7V25.3z"/>
	</g>
	<g>
		<rect x="26.3" y="2.5" fill="#FFD731" width="8" height="24"/>
		<path fill="#353535" d="M34.3,27.8h-8c-0.7,0-1.2-0.6-1.2-1.2v-24c0-0.7,0.6-1.2,1.2-1.2h8c0.7,0,1.2,0.6,1.2,1.2v24
			C35.6,27.2,35,27.8,34.3,27.8z M27.5,25.3h5.5V3.8h-5.5V25.3z"/>
	</g>
</g>
</svg>
