<?xml version="1.0" encoding="utf-8"?>
<!-- Generator: Adobe Illustrator 19.2.0, SVG Export Plug-In . SVG Version: 6.00 Build 0)  -->
<svg version="1.1" id="Layer_1" xmlns="http://www.w3.org/2000/svg" xmlns:xlink="http://www.w3.org/1999/xlink" x="0px" y="0px"
	 viewBox="0 0 60 60" enable-background="new 0 0 60 60" xml:space="preserve">
<g>
	<g>
		<g>
			<defs>
				<rect id="SVGID_1_" x="-429.9" y="-58.2" width="320" height="420"/>
			</defs>
			<clipPath id="SVGID_2_">
				<use xlink:href="#SVGID_1_"  overflow="visible"/>
			</clipPath>
			<g opacity="0.8" clip-path="url(#SVGID_2_)">
				
					<image overflow="visible" width="3008" height="1960" xlink:href="2614B3B1B83EF16C.jpg"  transform="matrix(0.275 0 0 0.275 -683.4249 -176.9934)">
				</image>
			</g>
		</g>
	</g>
</g>
<g id="Our_People">
</g>
<g id="Our_Service">
</g>
<g id="Our_Products">
</g>
<g>
	<g>
		<path fill="#353535" d="M53,57.8H13c-0.7,0-1.2-0.6-1.2-1.2V21c0-0.3,0.1-0.6,0.4-0.9L29.5,2.6c0.2-0.2,0.6-0.4,0.9-0.4H53
			c0.7,0,1.2,0.6,1.2,1.2v53C54.2,57.2,53.7,57.8,53,57.8z M14.2,55.3h37.5V4.8H30.9L14.2,21.6V55.3z"/>
	</g>
	<g>
		<path fill="#353535" d="M14.7,17c-0.3,0-0.6-0.1-0.9-0.4c-0.5-0.5-0.5-1.3,0-1.8l8.9-8.8c0.5-0.5,1.3-0.5,1.8,0
			c0.5,0.5,0.5,1.3,0,1.8l-8.9,8.8C15.4,16.9,15.1,17,14.7,17z"/>
	</g>
	<g>
		<polygon fill="#D8D8D8" points="53,14.9 53,56.5 13,56.5 13,21 30.4,3.5 30.4,14.9 		"/>
		<path fill="#353535" d="M53,57.7H13c-0.7,0-1.2-0.6-1.2-1.2V21c0-0.3,0.1-0.6,0.4-0.9L29.5,2.6c0.4-0.4,0.9-0.5,1.4-0.3
			c0.5,0.2,0.8,0.6,0.8,1.2v10.2H53c0.7,0,1.2,0.6,1.2,1.2v41.6C54.2,57.2,53.7,57.7,53,57.7z M14.2,55.2h37.5V16.2H30.4
			c-0.7,0-1.2-0.6-1.2-1.2V6.5l-14.9,15V55.2z"/>
	</g>
	<g>
		<rect x="13" y="19.9" fill="#FFFFFF" width="40" height="32"/>
		<path fill="#353535" d="M53,53.2H13c-0.7,0-1.2-0.6-1.2-1.2v-32c0-0.7,0.6-1.2,1.2-1.2h40c0.7,0,1.2,0.6,1.2,1.2v32
			C54.2,52.6,53.7,53.2,53,53.2z M14.2,50.7h37.5V21.2H14.2V50.7z"/>
	</g>
	<g>
		<path fill="#FFD731" d="M36.4,34.7c-2.8-2.8-3.3-5.8-3.4-7.3c-0.1,1.5-0.6,4.5-3.4,7.3c-3.8,3.8-1.6,9.7,3.4,9.7
			C37.9,44.4,40.2,38.5,36.4,34.7z"/>
		<path fill="#353535" d="M33,45.7c-2.7,0-5.1-1.5-6.1-4c-1.1-2.7-0.4-5.7,1.8-7.9c2.5-2.5,2.9-5.1,3-6.5c0-0.7,0.6-1.2,1.2-1.2
			s1.2,0.5,1.2,1.2c0.1,1.4,0.6,4,3,6.5c2.2,2.2,2.9,5.2,1.8,7.9C38,44.1,35.7,45.7,33,45.7z M33,32.1c-0.6,1.1-1.4,2.3-2.5,3.5
			c-1.8,1.8-1.8,3.8-1.3,5.2c0.6,1.5,2,2.4,3.8,2.4s3.1-0.9,3.8-2.4c0.6-1.3,0.5-3.4-1.3-5.2C34.3,34.4,33.5,33.3,33,32.1z"/>
	</g>
	<g>
		<g>
			<path fill="#353535" d="M5,6c2.6,0,5-0.3,7.2,1.2c2,1.4,3.9,2.8,5.7,4.4c1.2,1,3-0.7,1.8-1.8c-2.1-1.8-4.3-3.5-6.6-5.1
				C10.7,3.1,7.9,3.5,5,3.5C3.4,3.5,3.4,6,5,6L5,6z"/>
		</g>
	</g>
</g>
</svg>
